<svg width="9" height="12" viewBox="0 0 9 12" fill="none" xmlns="http://www.w3.org/2000/svg">
<path d="M-9.98309e-06 10.2107L-9.61504e-06 1.79068C-0.000491206 1.45827 0.0931758 1.13251 0.270149 0.851126C0.447123 0.569738 0.700166 0.344221 0.99999 0.200679C1.35573 0.0326466 1.75152 -0.0320726 2.14226 0.0138964C2.53299 0.0598653 2.90296 0.214673 3.20999 0.460679L8.30999 4.67068C8.50062 4.8359 8.65351 5.04016 8.75829 5.26963C8.86307 5.4991 8.9173 5.74842 8.9173 6.00068C8.9173 6.25294 8.86307 6.50226 8.75829 6.73173C8.65351 6.9612 8.50062 7.16546 8.30999 7.33068L3.20999 11.5407C2.90296 11.7867 2.53299 11.9415 2.14226 11.9875C1.75152 12.0334 1.35573 11.9687 0.999989 11.8007C0.700165 11.6571 0.447122 11.4316 0.270149 11.1502C0.0931754 10.8688 -0.000491603 10.5431 -9.98309e-06 10.2107Z" fill="url(#paint0_linear_30_317)"/>
<defs>
<linearGradient id="paint0_linear_30_317" x1="4.45864" y1="-0.000488476" x2="4.45864" y2="12.0018" gradientUnits="userSpaceOnUse">
<stop stop-color="#34D399"/>
<stop offset="1" stop-color="#38BDF8"/>
</linearGradient>
</defs>
</svg>
